<?xml version="1.0" encoding="UTF-8"?>
<svg xmlns="http://www.w3.org/2000/svg" viewBox="0 0 10153 9581" width="10153" height="9581">
  <g fill="#000000" fill-rule="evenodd" stroke="none">
    <path d="M 9663.00 385.00 L 8459.00 394.00 L 8499.00 3590.00 L 5094.00 344.00 L 1667.00 3477.00 L 1652.00 399.00 L 430.00 403.00 L 458.00 9145.00 L 1680.00 9126.00 L 1685.00 5785.00 L 5089.00 9067.00 L 8503.00 5767.00 L 8541.00 9104.00 L 9731.00 9095.00 Z M 6067.00 6413.00 L 6071.00 6412.00 L 6072.00 6417.00 L 6068.00 6418.00 Z M 6071.00 6409.00 L 6076.00 6408.00 L 6077.00 6412.00 L 6072.00 6413.00 Z M 3966.00 6272.00 L 4436.00 6508.00 L 4731.00 6590.00 L 5017.00 6631.00 L 5294.00 6631.00 L 5580.00 6590.00 L 6068.00 6421.00 L 5067.00 7395.00 Z M 3366.00 5659.00 L 3371.00 5658.00 L 3372.00 5662.00 L 3367.00 5663.00 Z M 3299.00 3667.00 L 3185.00 3918.00 L 3104.00 4186.00 L 3058.00 4490.00 L 3058.00 4721.00 L 3144.00 5185.00 L 3366.00 5659.00 L 2312.00 4585.00 Z M 3303.00 3663.00 L 3307.00 3662.00 L 3308.00 3667.00 L 3304.00 3668.00 Z M 3307.00 3658.00 L 3312.00 3657.00 L 3313.00 3662.00 L 3308.00 3663.00 Z M 7900.00 4613.00 L 6748.00 5750.00 L 6721.00 4359.00 L 6671.00 4281.00 L 4849.00 4272.00 L 4804.00 4331.00 L 4799.00 5226.00 L 5649.00 5277.00 L 5626.00 5418.00 L 5312.00 5559.00 L 4936.00 5545.00 L 4608.00 5368.00 L 4389.00 5080.00 L 4285.00 4680.00 L 4403.00 4168.00 L 4567.00 3958.00 L 4790.00 3817.00 L 5049.00 3757.00 L 5348.00 3794.00 L 5603.00 3930.00 L 5880.00 4198.00 L 6712.00 3707.00 L 6759.00 3585.00 Z M 6753.00 3581.00 L 6758.00 3580.00 L 6759.00 3585.00 L 6754.00 3586.00 Z M 6748.00 3577.00 L 6753.00 3576.00 L 6754.00 3580.00 L 6749.00 3581.00 Z M 6057.00 2954.00 L 6062.00 2953.00 L 6063.00 2957.00 L 6058.00 2958.00 Z M 4135.00 2890.00 L 5053.00 2039.00 L 6058.00 2953.00 L 5653.00 2781.00 L 5189.00 2695.00 L 4708.00 2713.00 L 4449.00 2772.00 Z"/>
<path d="M 9949.00 149.00 L 162.00 153.00 L 203.00 9436.00 L 10008.00 9390.00 Z M 9873.00 231.00 L 9922.00 9314.00 L 275.00 9354.00 L 240.00 234.00 Z"/>
  </g>
</svg>
